05d66e60ab22ee004720e0051af0fe74 *tests/data/fate/h264_mp4toannexb_ticket2991.h264
1985815 tests/data/fate/h264_mp4toannexb_ticket2991.h264
#extradata 0:       47, 0x3a590d55
#tb 0: 1/1200000
#media_type 0: video
#codec_id 0: h264
#dimensions 0: 1280x720
#sar 0: 3/4
0,          0,          0,    40040,    37126, 0xb020184c
0,      40040,      40040,    40040,     6920, 0x8512361a, F=0x0
0,      80081,      80081,    40040,     7550, 0x1bc56ed4, F=0x0
0,     120121,     120121,    40040,     8752, 0xb8c6f0a1, F=0x0
0,     160162,     160162,    40040,    13022, 0xe36b6255, F=0x0
0,     200202,     200202,    40040,    12982, 0x7c993297, F=0x0
0,     240242,     240242,    40040,    13982, 0x24fe5e0f, F=0x0
0,     280283,     280283,    40040,    13958, 0x9a22230d, F=0x0
0,     320323,     320323,    40040,    15346, 0xf0f1a59c, F=0x0
0,     360364,     360364,    40040,    21016, 0x8d061e7f, F=0x0
0,     400404,     400404,    40040,    14786, 0x7b1e889d, F=0x0
0,     440444,     440444,    40040,    11917, 0xf7742a9d, F=0x0
0,     480485,     480485,    40040,    11234, 0x83cbd9fd, F=0x0
0,     520525,     520525,    40040,    17616, 0xfdf95104, F=0x0
0,     560566,     560566,    40040,    10689, 0x9633d32b, F=0x0
0,     600606,     600606,    40040,    45291, 0x543c2cf6
0,     640646,     640646,    40040,    20837, 0x051abfab, F=0x0
0,     680687,     680687,    40040,    21418, 0xe2a59d70, F=0x0
0,     720727,     720727,    40040,    15643, 0x15cf2cec, F=0x0
0,     760768,     760768,    40040,    11956, 0x5aef382e, F=0x0
0,     800808,     800808,    40040,    15393, 0x951dd757, F=0x0
0,     840848,     840848,    40040,    14839, 0x2d33151c, F=0x0
0,     880889,     880889,    40040,    14580, 0x2a895aa6, F=0x0
0,     920929,     920929,    40040,    17571, 0xb3a115f0, F=0x0
0,     960970,     960970,    40040,    15621, 0x2cc6577d, F=0x0
0,    1001010,    1001010,    40040,    13653, 0xb6a3ac6e, F=0x0
0,    1041050,    1041050,    40040,    16274, 0xe8b9b09d, F=0x0
0,    1081091,    1081091,    40040,    13130, 0xcbb6bb8e, F=0x0
0,    1121131,    1121131,    40040,    16180, 0x5d188a7a, F=0x0
0,    1161172,    1161172,    40040,    14961, 0x9ff2f463, F=0x0
0,    1201212,    1201212,    40040,    54296, 0xe6ec30ed
0,    1241252,    1241252,    40040,    11500, 0x8c4852c9, F=0x0
0,    1281293,    1281293,    40040,    12065, 0xfb7954c3, F=0x0
0,    1321333,    1321333,    40040,    12532, 0xf0a935d3, F=0x0
0,    1361374,    1361374,    40040,    16284, 0xc5c18561, F=0x0
0,    1401414,    1401414,    40040,    17657, 0x08ce58cc, F=0x0
0,    1441454,    1441454,    40040,    21336, 0xd0965202, F=0x0
0,    1481495,    1481495,    40040,    18549, 0x9e9a42ef, F=0x0
0,    1521535,    1521535,    40040,    14351, 0xa864d2be, F=0x0
0,    1561576,    1561576,    40040,    15205, 0x5bd7b98e, F=0x0
0,    1601616,    1601616,    40040,    18040, 0x287af301, F=0x0
0,    1641656,    1641656,    40040,    15917, 0x2db52580, F=0x0
0,    1681697,    1681697,    40040,    13250, 0xfed0deb8, F=0x0
0,    1721737,    1721737,    40040,    13360, 0xbf92d476, F=0x0
0,    1761778,    1761778,    40040,    11749, 0x3041eaf1, F=0x0
0,    1801818,    1801818,    40040,    23997, 0xdbe6d5c4
0,    1841858,    1841858,    40040,    16065, 0xe8f715b7, F=0x0
0,    1881899,    1881899,    40040,    16441, 0x0a4e060f, F=0x0
0,    1921939,    1921939,    40040,    17395, 0xa8edecc2, F=0x0
0,    1961980,    1961980,    40040,    22295, 0xd5173c68, F=0x0
0,    2002020,    2002020,    40040,    22778, 0xf5e522ce, F=0x0
0,    2042060,    2042060,    40040,    20590, 0x2fd6b2ca, F=0x0
0,    2082101,    2082101,    40040,    19937, 0xe109dda5, F=0x0
0,    2122141,    2122141,    40040,    23833, 0xd12691cb, F=0x0
0,    2162182,    2162182,    40040,    17969, 0x9baad67a, F=0x0
0,    2202222,    2202222,    40040,    16645, 0x53fb3099, F=0x0
0,    2242262,    2242262,    40040,    15307, 0xbc5bac8d, F=0x0
0,    2282303,    2282303,    40040,    13748, 0xed26aeb4, F=0x0
0,    2322343,    2322343,    40040,    15092, 0x3c983538, F=0x0
0,    2362384,    2362384,    40040,    14636, 0x9b278a6c, F=0x0
0,    2402424,    2402424,    40040,    29134, 0xf784be18
0,    2442464,    2442464,    40040,    10232, 0x5408e15b, F=0x0
0,    2482505,    2482505,    40040,     9769, 0xc93cb7f9, F=0x0
0,    2522545,    2522545,    40040,    14454, 0x45230dbe, F=0x0
0,    2562586,    2562586,    40040,    14481, 0x4e111562, F=0x0
0,    2602626,    2602626,    40040,    13439, 0x0e096eeb, F=0x0
0,    2642666,    2642666,    40040,    13543, 0xc24569d9, F=0x0
0,    2682707,    2682707,    40040,    16012, 0x81543332, F=0x0
0,    2722747,    2722747,    40040,    15769, 0x2ddfa189, F=0x0
0,    2762788,    2762788,    40040,    14208, 0x1379add2, F=0x0
0,    2802828,    2802828,    40040,    11479, 0xdfc14b55, F=0x0
0,    2842868,    2842868,    40040,    11130, 0x0ab5959b, F=0x0
0,    2882909,    2882909,    40040,    14801, 0x40bae016, F=0x0
0,    2922949,    2922949,    40040,    17303, 0x9ce1fd31, F=0x0
0,    2962990,    2962990,    40040,    17678, 0x9bd66141, F=0x0
0,    3003030,    3003030,    40040,    48672, 0x3215ce46
0,    3043070,    3043070,    40040,    11894, 0x12e1fece, F=0x0
0,    3083111,    3083111,    40040,    16514, 0xc57aed05, F=0x0
0,    3123151,    3123151,    40040,    13044, 0x61914fa0, F=0x0
0,    3163192,    3163192,    40040,    16155, 0xb46c958a, F=0x0
0,    3203232,    3203232,    40040,    12950, 0xa676f605, F=0x0
0,    3243272,    3243272,    40040,    17870, 0x7a5aa03a, F=0x0
0,    3283313,    3283313,    40040,    13192, 0x3c9e9d99, F=0x0
0,    3323353,    3323353,    40040,    25559, 0x93e0becb, F=0x0
0,    3363394,    3363394,    40040,    14695, 0x19ace95a, F=0x0
0,    3403434,    3403434,    40040,    15484, 0x6e3bd0d2, F=0x0
0,    3443474,    3443474,    40040,    17096, 0x2fd93b48, F=0x0
0,    3483515,    3483515,    40040,    12208, 0x81a587c0, F=0x0
0,    3523555,    3523555,    40040,    14709, 0x5dffbe04, F=0x0
0,    3563596,    3563596,    40040,    14390, 0xbfd1e041, F=0x0
0,    3603636,    3603636,    40040,    37236, 0xe7f924b1
0,    3643676,    3643676,    40040,    14056, 0x24714c7c, F=0x0
0,    3683717,    3683717,    40040,    19438, 0x0c50dcd5, F=0x0
0,    3723757,    3723757,    40040,    21728, 0x7eea4a11, F=0x0
0,    3763798,    3763798,    40040,    17966, 0xac7ac988, F=0x0
0,    3803838,    3803838,    40040,    14868, 0x0eecb1be, F=0x0
0,    3843878,    3843878,    40040,    15608, 0x1449377e, F=0x0
0,    3883919,    3883919,    40040,    12484, 0xc9881139, F=0x0
0,    3923959,    3923959,    40040,    18226, 0xdcda8dfa, F=0x0
0,    3964000,    3964000,    40040,    19199, 0xe7ea4c92, F=0x0
0,    4004040,    4004040,    40040,    19042, 0xa5ade66f, F=0x0
0,    4044080,    4044080,    40040,    15662, 0x19ac319a, F=0x0
0,    4084121,    4084121,    40040,    16878, 0x98efbae2, F=0x0
0,    4124161,    4124161,    40040,    14685, 0x1bf78d65, F=0x0
0,    4164202,    4164202,    40040,    13127, 0x0b91881d, F=0x0
0,    4204242,    4204242,    40040,    29390, 0xf6a5ed6b
0,    4244282,    4244282,    40040,    12576, 0xe9845ded, F=0x0
0,    4284323,    4284323,    40040,    12599, 0x96a79ab8, F=0x0
0,    4324363,    4324363,    40040,    16134, 0xb4c36d3f, F=0x0
0,    4364404,    4364404,    40040,    15630, 0x33f65a2e, F=0x0
0,    4404444,    4404444,    40040,    13087, 0xb4b3886d, F=0x0
0,    4444484,    4444484,    40040,    10728, 0xbffd10fa, F=0x0
0,    4484525,    4484525,    40040,    10353, 0xccfe3506, F=0x0
0,    4524565,    4524565,    40040,     9534, 0xd42083f5, F=0x0
0,    4564606,    4564606,    40040,    12641, 0x93e8abbd, F=0x0
0,    4604646,    4604646,    40040,    11198, 0x6a9de1fb, F=0x0
0,    4644686,    4644686,    40040,    15572, 0xd6cb6c4b, F=0x0
0,    4684727,    4684727,    40040,    12072, 0x8928b77f, F=0x0
0,    4724767,    4724767,    40040,    19172, 0x549b6b87, F=0x0
